<svg width="162" height="32" xmlns="http://www.w3.org/2000/svg" xmlns:xlink="http://www.w3.org/1999/xlink">
 <defs>
  <path id="logo-principal-horizontal-b" d="m32.06357,17.25421c0,0.36193 -0.10277,0.63709 -0.10277,0.63709c-1.68408,5.21322 -6.09167,8.71411 -10.97509,8.71411c-1.6533,0 -3.22691,-0.39501 -4.65395,-1.10281c0,0 -2.01674,1.10233 -4.6439,1.10233c-6.45509,0 -11.68786,-5.95554 -11.68786,-13.30222c0,-7.34669 5.23277,-13.30223 11.68786,-13.30223c2.68528,0 4.6439,1.10233 4.6439,1.10233c1.42704,-0.7078 3.00065,-1.10281 4.65395,-1.10281c4.88342,0 9.29101,3.50089 10.97509,8.71411c0,0 0.10277,0.27492 0.10277,0.63709l0,0c0,0.25192 -0.04979,0.54601 -0.21858,0.81902c-0.28395,0.45876 -0.77943,0.74159 -1.34349,0.74543l-7.62746,0c-1.2685,0 -1.79197,-1.66847 -1.79197,-1.66847c-0.88904,-2.66414 -2.60901,-4.79665 -4.74774,-6.06963c-3.20192,1.91271 -5.39258,5.73215 -5.39322,10.12516c0.00064,4.393 2.1913,8.21244 5.39322,10.12515c2.13873,-1.27298 3.8587,-3.40549 4.74774,-6.06963c0,0 0.52347,-1.66847 1.79197,-1.66847l7.62746,0c0.56406,0.00384 1.05954,0.28667 1.34349,0.74543c0.16879,0.27301 0.21858,0.56711 0.21858,0.81902l0,0zm-9.48203,-9.10552c-0.89716,-2.43883 -2.39834,-4.47259 -4.25953,-5.90832c0.87622,-0.28236 1.79966,-0.43671 2.75429,-0.43671c4.1277,0 7.86206,2.88512 9.394,7.21509l-7.04032,0c-0.5521,0 -0.84844,-0.87006 -0.84844,-0.87006zm-20.98832,5.04112c0.00118,-6.2784 4.49778,-11.38615 10.02477,-11.38615c0.93455,0 1.84859,0.15028 2.72096,0.43167c-3.08141,2.38706 -5.10925,6.40759 -5.11075,10.95448c0.0015,4.54689 2.02934,8.56766 5.11075,10.95472c-0.87237,0.28139 -1.78641,0.43168 -2.72096,0.43168c-5.52699,0 -10.02359,-5.10776 -10.02477,-11.3864zm16.72879,11.17523c1.86119,-1.43597 3.36237,-3.46949 4.25953,-5.90855c0,0 0.29634,-0.86983 0.84844,-0.86983l7.04032,0c-1.53194,4.32997 -5.2663,7.2151 -9.394,7.2151c-0.95463,0 -1.87807,-0.1546 -2.75429,-0.43672z"/>
  <linearGradient id="logo-principal-horizontal-a" x1="49.945%" x2="-17.597%" y1="-15.715%" y2="69.286%">
   <stop offset="0%" stop-color="#24E28B"/>
   <stop offset="100%" stop-color="#1FC6C1"/>
  </linearGradient>
 </defs>
 <g>
  <title>background</title>
  <rect x="-1" y="-1" width="164" height="34" id="canvas_background" fill="none"/>
 </g>
 <g>
  <title>Layer 1</title>
  <g stroke="null" fill="none" fill-rule="evenodd" id="svg_1">
   <path stroke="null" fill="#566" d="m74.451775,8.103989c-0.00142,-0.436066 -0.350112,-0.808416 -0.795202,-0.787657c-2.114846,0.154188 -3.795672,0.901439 -5.039647,2.24349c-1.405549,1.516422 -2.108334,3.623356 -2.108334,6.321675l0,7.635284c0,0.436354 0.354649,0.790208 0.792085,0.790208l0.620285,0c0.437704,0 0.79264,-0.353854 0.79264,-0.790208l-0.002273,-7.635284c0,-2.070529 0.492714,-3.654638 1.479263,-4.752914c0.832341,-0.92733 1.99069,-1.458107 3.465982,-1.602337c0.44509,-0.038669 0.795202,-0.323982 0.795202,-0.804147l0,-0.618111zm2.647529,6.645389c0.167263,-1.706717 0.790387,-3.073508 1.869929,-3.968117c1.078678,-0.894608 2.571552,-1.341763 4.478035,-1.341763c1.906493,0 3.399644,0.447155 4.478621,1.341763c1.078966,0.894608 1.694148,2.2614 1.882388,3.968117l-12.708973,0zm6.223798,7.613373c-2.093313,0 -3.683995,-0.545579 -4.772025,-1.637014c-0.882228,-0.884373 -1.400446,-2.105534 -1.567709,-3.651521l13.736335,0c0.426367,0 0.659122,-0.08791 0.884224,-0.292134c0.34075,-0.308931 0.322324,-0.890627 0.322324,-0.890627c0,-2.706847 -0.754369,-4.771975 -2.261141,-6.293232c-1.50704,-1.521545 -3.621043,-2.282734 -6.342007,-2.282734c-2.756396,0 -4.794144,0.75693 -6.341729,2.282734c-2.470637,2.435482 -2.260566,6.381123 -2.260566,6.384538c-0.004249,2.734168 0.753525,4.79474 2.256604,6.321973c2.445966,2.485538 6.326987,2.262531 6.331524,2.262531c2.720389,0 4.856222,-0.756642 6.363253,-2.267664c0.817599,-0.820071 1.244263,-1.371348 1.618191,-2.54983c0.263919,-0.834863 -0.549123,-0.778255 -0.549123,-0.778255l-1.020859,0.000278c-0.461531,-0.003981 -0.629359,0.309775 -0.866076,0.769439c-1.175355,2.062567 -3.437906,2.621518 -5.531219,2.621518zm23.663963,-1.823904c-1.079254,1.09628 -2.657735,1.644133 -4.734319,1.644133c-2.056173,0 -3.628995,-0.547852 -4.719309,-1.644133c-1.090304,-1.096568 -1.635456,-2.711126 -1.635456,-4.778528c0,-2.088448 0.545152,-3.606568 1.635456,-4.692325c1.090314,-1.085767 2.663135,-1.628496 4.719309,-1.628496c2.076585,0 3.655065,0.54273 4.734319,1.628496c1.080386,1.085757 1.620157,2.603867 1.620157,4.692325c0,2.067402 -0.539771,3.681959 -1.620157,4.778528zm3.210839,-19.860498l-0.620007,0c-0.437426,0 -0.792362,0.352723 -0.792362,0.787647c0,0.005976 0.002273,8.505718 0.002273,8.505718c-0.704194,-0.922763 -1.727039,-1.720378 -2.807435,-2.127137c-1.080098,-0.406779 -2.226821,-0.609881 -3.611115,-0.609881c-2.705646,0 -4.813702,0.750676 -6.323869,2.252018c-1.510446,1.500766 -2.26539,3.538305 -2.26539,6.249143c0,2.689503 0.754945,4.81806 2.26539,6.319402c1.510168,1.501054 3.618223,2.25173 6.323869,2.25173c2.726911,0 4.845173,-0.750676 6.35534,-2.25173c1.510446,-1.501342 2.265371,-3.629888 2.265371,-6.251129l0,-14.269861c0,-0.503197 -0.354639,-0.85591 -0.792065,-0.85591l0,-0.00001zm-59.840438,15.265723c0,2.706003 0.748134,4.818914 2.244979,6.340181c1.496835,1.520681 3.596382,2.288125 6.298633,2.288125c2.483682,0 4.107244,-0.700888 4.923989,-1.249882c0.631891,-0.387142 0.563002,-0.837424 0.563002,-1.34091l0,-0.400793c0,-1.029427 -0.835439,-0.605026 -1.294696,-0.351015c-1.006117,0.538749 -2.016204,1.133261 -4.192295,1.133261c-2.078848,0 -3.659036,-0.550979 -4.739422,-1.651817c-1.08124,-1.101393 -1.621577,-2.690347 -1.621577,-4.76715c0,-2.077061 0.540337,-3.666015 1.621577,-4.767131c1.080396,-1.101125 2.660574,-1.651817 4.739422,-1.651817c1.442699,0 2.594525,0.265378 3.600363,0.804425c0.449329,0.21845 1.294994,0.646286 1.294994,-0.315176l0,-0.465363c0,-0.503485 0.071142,-0.899443 -0.566705,-1.265806c-1.333831,-0.673309 -2.464978,-0.967716 -4.328652,-0.967716c-2.702251,0 -4.801798,0.767464 -6.298623,2.288135c-1.496855,1.521257 -2.244989,3.634455 -2.244989,6.340449zm78.901892,7.216293c0,-0.481863 -0.352663,-0.768308 -0.798597,-0.806996c-1.478697,-0.144786 -2.639309,-0.677568 -3.473636,-1.608591c-0.988813,-1.101959 -1.48237,-2.692621 -1.48237,-4.771122l0.001698,-6.251129l3.638059,0c0.438558,0 0.79406,-0.354996 0.79406,-0.79277l0,-0.62096c0,-0.437773 -0.355502,-0.79277 -0.79406,-0.79277l-3.637771,0l0,-5.248437c0,-0.437773 -0.355224,-0.792779 -0.79406,-0.792779l-0.620007,0l0,0.000288l-0.00141,-0.000288c-0.43828,0 -0.793782,0.355006 -0.793782,0.792779l0,5.248437l-1.57027,0c-0.438558,0 -0.79406,0.354996 -0.79406,0.79277l0,0.62096c0,0.437773 0.355502,0.79277 0.79406,0.79277l1.57027,0l0,6.251129c0,2.708555 0.704194,4.823471 2.112871,6.345859c1.246239,1.347452 2.930747,2.097274 5.050409,2.252008c0.445934,0.021057 0.797187,-0.352713 0.798597,-0.790486l0,-0.620672zm-13.735193,-22.482016l-0.595625,0c-0.42042,0 -0.761179,0.365529 -0.761179,0.816378l0,2.083902c0,0.451146 0.34076,0.816656 0.761179,0.816656l0.595625,0c0.42041,0 0.76116,-0.365509 0.76116,-0.816656l0,-2.083902c0,-0.450848 -0.34075,-0.816378 -0.76116,-0.816378zm0,6.637139l-0.595625,0c-0.42042,0 -0.761179,0.352435 -0.761179,0.786793l0,15.152517c0,0.434358 0.34076,0.786505 0.761179,0.786505l0.595625,0c0.42041,0 0.76116,-0.352147 0.76116,-0.786505l0,-15.152517c0,-0.434358 -0.34075,-0.786793 -0.76116,-0.786793zm27.238514,11.249248c0,2.705437 -1.685084,3.618243 -5.850445,3.618243c-2.981478,0 -4.740544,-0.993588 -4.740544,-3.125857c0,-2.335063 1.819724,-3.245884 5.881321,-3.245884l4.709669,0l0,2.753498zm-0.057551,-6.399906l0,1.773858l-4.739988,0c-5.471414,0 -7.911434,1.5827 -7.911434,5.132382c0,3.278605 2.563908,5.235918 6.858537,5.235918c5.59841,0 7.968687,-1.679128 7.968687,-5.613679l0,-6.52848c0,-2.426945 -1.646803,-3.512701 -1.646803,-3.512701c-0.822692,-0.638314 -1.872748,-1.037111 -3.149316,-1.196977c-0.786118,-0.102127 -1.442699,-0.139663 -2.251214,-0.139663c-0.767702,0 -1.424839,0.031004 -2.166173,0.120314c-1.355086,0.141957 -2.469495,0.545023 -3.335571,1.216326c-1.090026,0.846528 -1.636607,2.031562 -1.644252,3.512701c0,0 0.025504,0.682989 0.7694,0.682989l0.001122,-0.000288l0,0.000288l0.602723,0c0.426089,0 0.771653,-0.276785 0.771653,-0.704313c0,-1.577299 1.317967,-2.088458 1.317967,-2.088458c0.383836,-0.18688 1.819159,-0.623234 3.672071,-0.623234c1.929724,0 3.209985,0.436066 3.593265,0.622956c0,0 1.289325,0.490966 1.289325,2.110061zm11.480028,4.471612c4.021617,0 5.469131,0.245483 5.469131,2.566608c0,2.118887 -2.051636,3.010656 -5.003927,3.010656c-2.368579,0 -3.926936,-0.299252 -4.824761,-1.06329c-0.730552,-0.663907 -0.679524,-1.656373 -0.679524,-1.656373c0,-0.427816 -0.345863,-0.704859 -0.772527,-0.704859l-0.604401,0c-0.744441,0 -0.770243,0.683247 -0.770243,0.683247c0,2.465355 1.634046,3.551678 1.634046,3.551678c1.295282,0.878108 3.267258,1.282882 6.01741,1.282882c4.299157,0 7.175758,-1.863734 7.175758,-5.146321c0,-3.553951 -2.153406,-4.643401 -7.630489,-4.643401c-2.341635,0 -3.465684,-0.599635 -3.465684,-0.599635c-1.367288,-0.60445 -1.291023,-1.881654 -1.291023,-1.881654c0,-1.492804 1.291023,-2.042086 1.291023,-2.042086c0.383568,-0.187446 1.533696,-0.558951 3.465684,-0.558951c1.854898,0 3.160664,0.397675 3.544798,0.584833c0,0 1.206548,0.527957 1.29556,1.709278c0.030617,0.405637 0.345853,0.657375 0.772517,0.657375l0.604689,0c0.760892,0 0.746149,-0.683823 0.746149,-0.683823c0,-0.977952 -0.507158,-2.201386 -1.598614,-3.048768c-0.86692,-0.672157 -1.960629,-1.054743 -3.207711,-1.217746c-0.741334,-0.096994 -1.39989,-0.120592 -2.168436,-0.120592c-0.809647,0 -1.335817,0.037537 -2.122223,0.139653c-1.278266,0.160154 -2.385864,0.616989 -3.15301,1.198685c0,0 -1.648223,1.081498 -1.648223,3.382142c0,0 -0.113683,2.000846 1.648223,3.310186c0,0 1.408676,1.290278 5.275798,1.290278l0.00001,0z" id="svg_2"/>
   <path stroke="null" fill="url(#logo-principal-horizontal-a)" d="m42.741163,20.586063c0,0.429524 -0.136357,0.756077 -0.136357,0.756077c-2.234495,6.186847 -8.082657,10.341565 -14.562164,10.341565c-2.193653,0 -4.281585,-0.468788 -6.175033,-1.308774c0,0 -2.675883,1.308198 -6.1617,1.308198c-8.564857,0 -15.50789,-7.067794 -15.50789,-15.786551c0,-8.718767 6.943032,-15.786561 15.50789,-15.786561c3.562926,0 6.1617,1.308198 6.1617,1.308198c1.893448,-0.839986 3.98138,-1.308774 6.175033,-1.308774c6.479506,0 12.327668,4.154718 14.562164,10.341565c0,0 0.136357,0.326265 0.136357,0.756077l0,0c0,0.298964 -0.066059,0.647983 -0.290019,0.971985c-0.376758,0.544437 -1.034172,0.880084 -1.782595,0.884641l-10.120395,0c-1.683099,0 -2.377653,-1.980077 -2.377653,-1.980077c-1.179614,-3.161696 -3.461732,-5.692475 -6.299477,-7.203199c-4.248436,2.269937 -7.155079,6.802694 -7.155933,12.016146c0.000854,5.213442 2.907497,9.746199 7.155933,12.016136c2.837744,-1.510724 5.119863,-4.041502 6.299477,-7.203199c0,0 0.694554,-1.980077 2.377653,-1.980077l10.120395,0c0.748422,0.004557 1.405837,0.340204 1.782595,0.884641c0.22396,0.324002 0.290019,0.673031 0.290019,0.971985l0,0zm-12.581113,-10.806074c-1.190385,-2.894303 -3.182207,-5.307894 -5.651702,-7.011762c1.162608,-0.335091 2.387859,-0.518268 3.654499,-0.518268c5.476785,0 10.431669,3.423947 12.464314,8.562584l-9.341365,0c-0.732548,0 -1.125736,-1.032554 -1.125736,-1.032554l-0.00001,0zm-27.848087,5.982603c0.001569,-7.450955 5.967821,-13.512633 13.301242,-13.512633c1.239994,0 2.452777,0.178342 3.610271,0.512291c-4.08853,2.83287 -6.779145,7.604269 -6.781131,13.000342c0.001986,5.396073 2.692601,10.16777 6.781131,13.00064c-1.157495,0.333939 -2.370277,0.512301 -3.610271,0.512301c-7.333421,0 -13.299673,-6.061698 -13.301242,-13.512941zm22.196385,13.262325c2.469495,-1.704146 4.461317,-4.11745 5.651702,-7.01203c0,0 0.393198,-1.032286 1.125746,-1.032286l9.341355,0c-2.032635,5.138636 -6.987519,8.562604 -12.464304,8.562604c-1.26664,0 -2.491902,-0.183475 -3.654499,-0.518287z" id="svg_3"/>
   <use stroke="null" fill="#1B7" xlink:href="#logo-principal-horizontal-b" y="0.511981" x="0.198019" id="svg_4" transform="matrix(1.3268374983819626,0,0,1.1867608046450653,-0.06472019438674337,-0.4981536889945233) "/>
  </g>
 </g>
</svg>